<svg xmlns="http://www.w3.org/2000/svg" xmlns:xlink="http://www.w3.org/1999/xlink" width="492" height="146" overflow="hidden"><defs><clipPath id="clip0"><rect x="394" y="286" width="493" height="147"/></clipPath></defs><g clip-path="url(#clip0)" transform="translate(-395 -286)"><path d="M396.625 301 477.375 301C478.272 301 479 301.724 479 302.618L479 330.002C479 330.896 478.272 331.62 477.375 331.62L431.25 331.62 431.25 347.223 466.195 347.223C467.054 347.223 467.75 347.916 467.75 348.771L467.75 371.396C467.75 372.252 467.054 372.945 466.195 372.945L431.25 372.945 431.25 388.131 477.333 388.131C478.254 388.131 479 388.874 479 389.791L479 417.34C479 418.257 478.254 419 477.333 419L396.667 419C395.746 419 395 418.257 395 417.34L395 400.827 395 389.791 395 371.396 395 348.771 395 330.002 395 324.152 395 302.618C395 301.724 395.728 301 396.625 301Z" fill="#E41D25" fill-rule="evenodd"/><path d="M536.135 332.492 536.135 358.506 551.832 358.506 556.76 357.512C561.444 355.533 564.731 350.9 564.731 345.499 564.731 340.098 561.444 335.465 556.76 333.485L551.832 332.492ZM501.786 301 527.662 301 534.349 301 551.679 301 553.455 301 554.825 301 554.825 301.138 562.432 301.904C582.731 306.053 598 323.995 598 345.499 598 367.003 582.731 384.944 562.432 389.094L554.825 389.86 554.825 389.998 553.455 389.998 551.679 389.998 536.135 389.998 536.135 417.216C536.135 418.201 535.335 419 534.349 419L501.786 419C500.8 419 500 418.201 500 417.216L500 302.784C500 301.799 500.8 301 501.786 301Z" fill="#E41D25" fill-rule="evenodd"/><path d="M598 301 634.735 301 666.916 301 690.374 301C691.824 301 693 302.17 693 303.614L693 329.006C693 330.45 691.824 331.62 690.374 331.62L668.958 331.62 668.958 416.967C668.958 418.09 668.044 419 666.916 419L634.735 419C633.607 419 632.692 418.09 632.692 416.967L632.692 331.62 617.609 331.62 617.482 330.492C615.083 319.991 609.268 310.605 601.121 303.306Z" fill="#E41D25" fill-rule="evenodd"/><path d="M739 290.075C739 287.824 740.824 286 743.075 286L882.925 286C885.176 286 887 287.824 887 290.075L887 427.925C887 430.176 885.176 432 882.925 432L743.075 432C740.824 432 739 430.176 739 427.925Z" fill="#E41D25" fill-rule="evenodd"/><path d="M810.835 304.055C822.013 303.461 833.126 307.684 840.932 315.961 850.413 326.016 853.257 340.175 848.731 352.741L846.394 357.889 846.417 357.905 826.12 386.605 852 386.605 852 410 802.565 410 795.295 410 777.23 410 802.565 374.186 802.565 374.278 822.766 345.713 824.025 342.647C824.72 339.412 823.667 335.986 821.026 333.527 817.964 330.675 813.358 329.687 809.21 330.991 804.657 332.423 801.604 336.313 801.604 340.682L801.592 340.682 801.592 343.049 775 343.049 775 340.682 775 338.255 775.194 338.255 775.453 335.016C777.547 322.035 786.737 310.944 799.755 306.283 803.376 304.986 807.109 304.253 810.835 304.055Z" fill="#FFFFFF" fill-rule="evenodd"/></g></svg>