<svg xmlns="http://www.w3.org/2000/svg" xmlns:xlink="http://www.w3.org/1999/xlink" width="492" height="146" overflow="hidden"><defs><clipPath id="clip0"><rect x="394" y="286" width="493" height="147"/></clipPath></defs><g clip-path="url(#clip0)" transform="translate(-395 -286)"><path d="M396.625 301 477.375 301C478.272 301 479 301.724 479 302.618L479 330.002C479 330.896 478.272 331.62 477.375 331.62L431.25 331.62 431.25 347.223 466.195 347.223C467.054 347.223 467.75 347.916 467.75 348.771L467.75 371.396C467.75 372.252 467.054 372.945 466.195 372.945L431.25 372.945 431.25 388.131 477.333 388.131C478.254 388.131 479 388.874 479 389.791L479 417.34C479 418.257 478.254 419 477.333 419L396.667 419C395.746 419 395 418.257 395 417.34L395 400.827 395 389.791 395 371.396 395 348.771 395 330.002 395 324.152 395 302.618C395 301.724 395.728 301 396.625 301Z" fill="#1DAD4B" fill-rule="evenodd"/><path d="M536.135 332.492 536.135 358.506 551.832 358.506 556.76 357.512C561.444 355.533 564.731 350.9 564.731 345.499 564.731 340.098 561.444 335.465 556.76 333.485L551.832 332.492ZM501.786 301 527.662 301 534.349 301 551.679 301 553.455 301 554.825 301 554.825 301.138 562.432 301.904C582.731 306.053 598 323.995 598 345.499 598 367.003 582.731 384.944 562.432 389.094L554.825 389.86 554.825 389.998 553.455 389.998 551.679 389.998 536.135 389.998 536.135 417.216C536.135 418.201 535.335 419 534.349 419L501.786 419C500.8 419 500 418.201 500 417.216L500 302.784C500 301.799 500.8 301 501.786 301Z" fill="#1DAD4B" fill-rule="evenodd"/><path d="M598 301 634.735 301 666.916 301 690.374 301C691.824 301 693 302.17 693 303.614L693 329.006C693 330.45 691.824 331.62 690.374 331.62L668.958 331.62 668.958 416.967C668.958 418.09 668.044 419 666.916 419L634.735 419C633.607 419 632.692 418.09 632.692 416.967L632.692 331.62 617.609 331.62 617.482 330.492C615.083 319.991 609.268 310.605 601.121 303.306Z" fill="#1DAD4B" fill-rule="evenodd"/><path d="M739 290.075C739 287.824 740.824 286 743.075 286L882.925 286C885.176 286 887 287.824 887 290.075L887 427.925C887 430.176 885.176 432 882.925 432L743.075 432C740.824 432 739 430.176 739 427.925Z" fill="#1DAD4B" fill-rule="evenodd"/><path d="M834.402 308 837.61 308 839.871 308 842.585 308 848.054 308 843.169 318.205 843.287 318.262 831.649 342.067 832.182 342.331 832.203 342.333C835.671 343.365 839.267 345.762 842.171 349.28L842.522 349.847 842.764 350.006C846.503 353.66 849.255 358.393 850.745 363.746L851.903 371.534 851.904 371.534 851.904 371.539 852 372.184 851.755 374.802 851.526 379.825 851.161 381.168 851.157 381.209 851.071 381.499 849.375 387.727 846.804 392.603 846.652 392.922 846.607 392.977 845.551 394.98C844.01 397.261 842.207 399.39 840.16 401.324L839.459 401.858 839.065 402.348 837.405 403.425 833.697 406.253 831.258 407.413 829.239 408.723 826.86 409.505 826.38 409.733 825.535 409.941 824.932 410.139 825.074 410.357 819.671 411.38 818.455 411.678 818.001 411.696 817.908 411.714 816.758 411.744 810.167 412 810.172 411.899 802.481 410.974C799.85 410.47 797.211 409.777 794.595 408.897L794.667 408.61 793.085 408.151 789.369 406.398 789.217 406.678 775 399.028 786.049 378.78 799.689 386.12 805.579 387.836 812.128 388.427 812.162 388.28C813.85 388.104 815.581 387.629 817.275 386.888L821.997 384.01 824.972 380.79C827.342 377.038 827.549 372.204 825.273 367.832 824 365.387 822.065 363.316 819.734 361.792L811.887 359.061 806.716 359.061 803.978 359.061 796.493 359.061 806.26 340.909 811.74 329.701 780.594 329.701 780.594 308Z" fill="#FFFFFF" fill-rule="evenodd"/></g></svg>