<svg xmlns="http://www.w3.org/2000/svg" xmlns:xlink="http://www.w3.org/1999/xlink" width="708" height="146" overflow="hidden"><defs><clipPath id="clip0"><rect x="394" y="286" width="710" height="146"/></clipPath></defs><g clip-path="url(#clip0)" transform="translate(-395 -286)"><path d="M739 290.075C739 287.824 740.824 286 743.075 286L1098.93 286C1101.18 286 1103 287.824 1103 290.075L1103 427.925C1103 430.176 1101.18 432 1098.93 432L743.075 432C740.824 432 739 430.176 739 427.925Z" fill="#F04823" fill-rule="evenodd"/><path d="M396.625 301 477.375 301C478.272 301 479 301.724 479 302.618L479 330.002C479 330.896 478.272 331.62 477.375 331.62L431.25 331.62 431.25 347.223 466.195 347.223C467.054 347.223 467.75 347.916 467.75 348.771L467.75 371.396C467.75 372.252 467.054 372.945 466.195 372.945L431.25 372.945 431.25 388.131 477.333 388.131C478.254 388.131 479 388.874 479 389.791L479 417.34C479 418.257 478.254 419 477.333 419L396.667 419C395.746 419 395 418.257 395 417.34L395 400.827 395 389.791 395 371.396 395 348.771 395 330.002 395 324.152 395 302.618C395 301.724 395.728 301 396.625 301Z" fill="#F04823" fill-rule="evenodd"/><path d="M536.135 332.492 536.135 358.506 551.832 358.506 556.76 357.512C561.444 355.533 564.731 350.9 564.731 345.499 564.731 340.098 561.444 335.465 556.76 333.485L551.832 332.492ZM501.786 301 527.662 301 534.349 301 551.679 301 553.455 301 554.825 301 554.825 301.138 562.432 301.904C582.731 306.053 598 323.995 598 345.499 598 367.003 582.731 384.944 562.432 389.094L554.825 389.86 554.825 389.998 553.455 389.998 551.679 389.998 536.135 389.998 536.135 417.216C536.135 418.201 535.335 419 534.349 419L501.786 419C500.8 419 500 418.201 500 417.216L500 302.784C500 301.799 500.8 301 501.786 301Z" fill="#F04823" fill-rule="evenodd"/><path d="M598 301 634.735 301 666.916 301 690.374 301C691.824 301 693 302.17 693 303.614L693 329.006C693 330.45 691.824 331.62 690.374 331.62L668.958 331.62 668.958 416.967C668.958 418.09 668.044 419 666.916 419L634.735 419C633.607 419 632.692 418.09 632.692 416.967L632.692 331.62 617.609 331.62 617.482 330.492C615.083 319.991 609.268 310.605 601.121 303.306Z" fill="#F04823" fill-rule="evenodd"/><path d="M983.99 333 1023.01 333C1023.56 333 1024 333.457 1024 334.022L1024 345.849C1024 346.413 1023.56 346.87 1023.01 346.87L1011.17 346.87 1011.17 383.977C1011.17 384.542 1010.72 385 1010.18 385L996.823 385C996.276 385 995.832 384.542 995.832 383.977L995.832 346.87 983.99 346.87C983.443 346.87 983 346.413 983 345.849L983 334.022C983 333.457 983.443 333 983.99 333Z" fill="#FFFFFF" fill-rule="evenodd"/><path d="M874 359C874 344.641 885.641 333 900 333 914.359 333 926 344.641 926 359 926 373.359 914.359 385 900 385 885.641 385 874 373.359 874 359ZM889.738 359C889.738 364.668 894.332 369.262 900 369.262 905.668 369.262 910.262 364.668 910.262 359 910.262 353.332 905.668 348.738 900 348.738 894.332 348.738 889.738 353.332 889.738 359Z" fill="#FFFFFF" fill-rule="evenodd"/><path d="M847.106 346.446 846.85 346.55 839.717 346.55 839.717 357.788 845.242 357.788 845.258 357.751 845.406 357.788 847.429 357.788 849.343 357.089C851.199 355.981 852.344 353.909 852.152 351.664 851.984 349.7 850.829 348.034 849.191 347.12L847.656 346.563 847.549 346.548 847.549 346.525 847.411 346.475ZM825.016 333 846.85 333 847.14 333.118 849.993 333.385 850.297 333.468 850.459 333.48C857.135 334.471 862.899 338.826 865.528 345.085 868.533 352.237 866.851 360.464 861.268 365.922 857.08 370.015 851.319 371.945 845.634 371.393L845.312 371.338 839.717 371.338 839.717 383.002C839.717 383.553 839.262 384 838.701 384L825.016 384C824.455 384 824 383.553 824 383.002L824 370.34 824 370.34 824 358.786 824 358.786 824 345.552 824 341.827 824 333.998C824 333.447 824.455 333 825.016 333Z" fill="#FFFFFF" fill-rule="evenodd"/><path d="M20.0228 13.4984 20.1496 13.55 27.2834 13.55 27.2834 24.7879 21.7578 24.7879 21.7421 24.751 21.5935 24.7879 19.5706 24.7879 17.6566 24.0885C15.8006 22.9811 14.6557 20.9087 14.8477 18.6641 15.0398 16.4194 16.5207 14.5638 18.5388 13.7763ZM41.9841 0 20.1496 0 19.8602 0.117793 17.0073 0.384763 16.7206 0.467072 16.5409 0.480307C9.86473 1.47125 4.10114 5.82619 1.47185 12.0847-1.53304 19.2372 0.149035 27.4641 5.73218 32.9218 6.43009 33.604 7.17173 34.2261 7.94943 34.7866L8.81709 35.3198 0.283623 51 15.779 51 22.6699 38.3379 27.2834 38.3379 27.2834 50.0021C27.2834 50.5532 27.7382 51 28.2991 51L41.9841 51C42.5451 51 42.9999 50.5532 42.9999 50.0021L42.9999 37.3402 43 37.34 43 25.7859 42.9999 25.7856 42.9999 12.5521 42.9999 8.82675 42.9999 0.997968C42.9999 0.446813 42.5451 0 41.9841 0Z" fill="#FFFFFF" fill-rule="evenodd" transform="matrix(-1 -8.74228e-08 -8.74228e-08 1 978 333)"/><path d="M1049.49 333C1050.56 333 1051.58 333.067 1052.51 333.188L1053.75 333.396 1053.76 333.397 1053.77 333.399 1053.83 333.409 1054.83 333.663 1055.74 333.816C1056.56 333.989 1057.28 334.209 1057.84 334.464L1057.94 334.522 1058.07 334.549C1059.51 334.929 1060.86 335.586 1062.08 336.491L1063.02 337.278 1063.51 337.61 1064.95 339.093 1066.53 340.565C1067.09 341.094 1067.26 341.893 1067.01 342.578L1066.94 342.68 1066.84 343.183C1066.71 343.475 1066.53 343.747 1066.29 343.982L1062.14 347.995 1060.89 349.332C1060.19 350.087 1059 350.128 1058.24 349.422L1056.18 347.499 1055.11 346.668C1053.37 345.524 1051.28 344.897 1049.16 344.829L1047.19 344.94 1046.59 345.374 1046.17 345.827C1045.85 346.318 1045.67 346.874 1045.62 347.461L1045.62 347.91 1045.88 348.68C1046.27 349.429 1046.85 350.005 1047.6 350.332L1047.59 350.345 1047.77 350.393 1060.44 355.307C1060.66 355.392 1060.86 355.496 1061.05 355.617L1061.56 356.022 1061.62 356.049C1065.29 358.148 1067.85 361.468 1068.7 365.409 1069.8 370.515 1067.87 375.999 1063.56 380.072L1063.51 380.037 1061.74 381.615C1058.93 383.705 1055.4 384.883 1051.66 384.994L1049.67 384.938 1049.35 384.976C1048.42 385.03 1047.49 384.992 1046.58 384.863L1045.59 384.674 1045.34 384.653C1043.49 384.393 1041.73 383.77 1040.13 382.825L1039.69 382.536 1038.9 382.179C1038.19 381.814 1037.51 381.388 1036.87 380.906L1036.07 380.204 1035.45 379.836C1034.56 379.244 1033.73 378.548 1032.96 377.756L1032.77 377.534 1032.7 377.487 1030.53 375.249C1029.81 374.506 1029.83 373.321 1030.57 372.602L1036.74 366.624C1037.12 366.264 1037.6 366.089 1038.08 366.096 1038.56 366.103 1039.03 366.294 1039.39 366.665L1039.47 366.741 1039.56 366.701 1040.06 367.348 1041.24 368.566 1041.84 369.068 1042.37 369.423 1044.68 370.654 1045.74 371.049C1046.22 371.201 1046.72 371.327 1047.23 371.428 1047.93 371.566 1048.63 371.652 1049.34 371.688L1050.68 371.659 1051.48 371.454C1052.4 371.087 1053.12 370.521 1053.53 369.792 1053.87 369.193 1053.99 368.519 1053.9 367.815L1053.82 367.45 1053.76 367.301C1053.34 366.555 1052.65 365.859 1051.73 365.274L1051.05 364.893 1050.75 364.777 1050.48 364.703 1047.06 363.377 1046.21 363.261C1044.49 362.907 1042.8 362.312 1041.19 361.478L1039.25 360.292 1039.13 360.232 1039.06 360.18 1038.85 360.051C1037.58 359.148 1036.47 358.128 1035.52 357.025L1035.17 356.589 1034.43 355.706C1033.73 354.748 1033.16 353.703 1032.75 352.59L1032.71 352.463 1032.62 352.262C1031.15 348.489 1031.29 344.407 1033.32 340.978 1034.03 339.768 1034.94 338.713 1036 337.825L1036.12 337.741 1036.37 337.458C1037.49 336.404 1039.59 335.254 1042.13 334.406L1042.72 334.232 1042.85 334.154C1044.21 333.462 1046.67 333 1049.49 333Z" fill="#FFFFFF" fill-rule="evenodd"/><path d="M793.987 333C795.031 333 796.027 333.067 796.932 333.188L798.136 333.396 798.15 333.397 798.157 333.399 798.217 333.409 799.189 333.663 800.078 333.816C800.883 333.989 801.578 334.209 802.122 334.464L802.221 334.522 802.354 334.549C803.751 334.929 805.07 335.586 806.261 336.491L807.175 337.278 807.647 337.61 809.05 339.093 810.589 340.565C811.142 341.094 811.303 341.893 811.058 342.578L810.996 342.68 810.893 343.183C810.772 343.475 810.594 343.747 810.357 343.982L806.319 347.995 805.102 349.332C804.413 350.087 803.257 350.128 802.52 349.422L800.509 347.499 799.471 346.668C797.773 345.524 795.739 344.897 793.665 344.829L791.753 344.94 791.161 345.374 790.76 345.827C790.447 346.318 790.268 346.874 790.223 347.461L790.222 347.91 790.477 348.68C790.852 349.429 791.422 350.005 792.15 350.332L792.143 350.345 792.31 350.393 804.662 355.307C804.873 355.392 805.071 355.496 805.254 355.617L805.752 356.022 805.805 356.049C809.381 358.148 811.877 361.468 812.704 365.409 813.775 370.515 811.903 375.999 807.697 380.072L807.654 380.037 805.93 381.615C803.189 383.705 799.752 384.883 796.105 384.994L794.169 384.938 793.85 384.976C792.945 385.03 792.043 384.992 791.152 384.863L790.189 384.674 789.943 384.653C788.148 384.393 786.433 383.77 784.871 382.825L784.444 382.536 783.669 382.179C782.981 381.814 782.32 381.388 781.692 380.906L780.918 380.204 780.31 379.836C779.444 379.244 778.632 378.548 777.888 377.756L777.7 377.534 777.633 377.487 775.515 375.249C774.813 374.506 774.831 373.321 775.555 372.602L781.571 366.624C781.933 366.264 782.403 366.089 782.87 366.096 783.338 366.103 783.802 366.294 784.154 366.665L784.226 366.741 784.314 366.701 784.8 367.348 785.953 368.566 786.534 369.068 787.053 369.423 789.301 370.654 790.332 371.049C790.804 371.201 791.289 371.327 791.786 371.428 792.467 371.566 793.157 371.652 793.848 371.688L795.147 371.659 795.924 371.454C796.828 371.087 797.524 370.521 797.928 369.792 798.26 369.193 798.376 368.519 798.291 367.815L798.213 367.45 798.147 367.301C797.745 366.555 797.074 365.859 796.175 365.274L795.508 364.893 795.216 364.777 794.955 364.703 791.623 363.377 790.79 363.261C789.121 362.907 787.469 362.312 785.903 361.478L784.008 360.292 783.894 360.232 783.83 360.18 783.624 360.051C782.387 359.148 781.3 358.128 780.375 357.025L780.038 356.589 779.318 355.706C778.636 354.748 778.084 353.703 777.678 352.59L777.641 352.463 777.555 352.262C776.12 348.489 776.255 344.407 778.232 340.978 778.929 339.768 779.815 338.713 780.845 337.825L780.959 337.741 781.204 337.458C782.294 336.404 784.346 335.254 786.824 334.406L787.39 334.232 787.516 334.154C788.843 333.462 791.245 333 793.987 333Z" fill="#FFFFFF" fill-rule="evenodd"/></g></svg>