<svg xmlns="http://www.w3.org/2000/svg" viewBox="0 0 1190.11 239.11"><defs><style>.cls-1{fill:#fff;}</style></defs><g id="Layer_2" data-name="Layer 2"><g id="High"><path class="cls-1" d="M1190,116.7q0-52.26.06-104.52c0-7,0-7.06-7.26-7.07q-13.23,0-26.46,0c-7.52,0-7.54,0-7.54,7.31q0,40.3,0,80.63c0,7.68,0,7.69-7.62,7.69H1018.38c-6.8,0-7,0-7.13,6.9-.19,9.45.09,18.91-.15,28.36-.11,4.51,1.44,6,6,6,29.29-.19,58.59-.07,87.88-.1,13,0,26-.05,38.94-.25,3.67-.06,5.12,1.29,5,4.94-.2,4.3-.12,8.62-.11,12.93q0,39.81.1,79.62h40.95c.09-2.32.26-4.63.25-7Q1190.07,174.43,1190,116.7Z"/><path class="cls-1" d="M910.2,109.38q-71.15.15-142.31,0c-3.72,0-4.93,1.38-4.87,5,.17,9.29.23,18.59,0,27.87-.12,4.27,1.64,5.68,5.59,5.34,1.49-.13,3,0,4.49,0,31.63,0,63.25.07,94.87-.09,4.49,0,6.12,1.2,6,5.89-.3,13.1-.19,26.21-.06,39.32,0,3.43-1.2,4.7-4.65,4.68-37.28-.15-74.57.16-111.84-.47-14.93-.25-28.63-5.64-40.49-15.05-24.22-19.22-33.66-53.18-23.59-84.86,9.8-30.83,38.11-50.71,72.39-50.75q62.65-.06,125.33,0c7.26,0,7.27,0,7.29-7q0-13.44,0-26.87c0-7.2,0-7.23-7.11-7.23-39.45,0-78.89-.13-118.34.08a218.48,218.48,0,0,0-29.83,1.93c-34.11,4.94-60.88,21.7-78.5,51.47-16.22,27.39-19.31,57.14-13.27,88,8,40.82,40.48,81.76,90.89,90.06,4.41.73,8.79,1.64,13.19,2.46H915.2q0-62.22.15-124.43C915.36,110.92,914.2,109.37,910.2,109.38Z"/><path class="cls-1" d="M508.78,5.07c-9.82.14-19.64,0-29.46,0-6.49,0-6.58.1-6.58,6.8q0,40.32.05,80.64c0,8.18,0,8.19-8.19,8.19q-61.17,0-122.34-.06c-4.35,0-6.83.66-6.61,5.91.38,9.28.12,18.58.14,27.87,0,7.18,0,7.2,7.12,7.2H465.75c6.87,0,6.89,0,6.89,6.86q.06,45.3.09,90.59h41L514,32.17c0-7.3-.15-14.6.07-21.9C514.17,6.33,512.59,5,508.78,5.07Z"/><path class="cls-1" d="M318.08,10.85c0-4.28-1.26-5.91-5.68-5.82-11.81.24-23.62.1-35.43.12v234h40.95c.06-2.32.17-4.64.17-7Q318,156.57,318,81C318,57.59,317.92,34.22,318.08,10.85Z"/><path class="cls-1" d="M594,5c-9.47.25-19,.07-28.43.08-7.07,0-7.08,0-7.09,7.24l.17,226.76h41c0-1.16.11-2.32.11-3.48q0-112.14-.08-224.29a4.17,4.17,0,0,1,0-.5C600.14,6.58,598.42,4.91,594,5Z"/><path class="cls-1" d="M987.52,5.11q-13.72,0-27.45,0c-7.18,0-7.19,0-7.19,7.16q-.06,110.19-.08,220.4c0,2.15.23,4.29.35,6.44h40a47.17,47.17,0,0,0,.91-6.32c.12-7.13,0-14.26,0-21.39q0-99.75.05-199.51C994.11,5.21,994,5.13,987.52,5.11Z"/><path class="cls-1" d="M1069.54,167.42c8.44-2.73,11.76-1.59,15.88,5.22,6.95,11.5,13.9,23,21.22,35.1,1.23-1.75,2.2-3,3-4.31q9.22-15.08,18.41-30.17c4.64-7.59,6.75-8.39,16.37-6-.6,1.27-1,2.3-1.54,3.45q-14.73,23.67-29.53,47.3a30.62,30.62,0,0,1-2.93,4c-2.46,2.84-5.06,2.93-7.58.06a26,26,0,0,1-2.73-3.55"/><path class="cls-1" d="M1039.6,166.37c7.48,0,15,.21,22.44-.07,4.84-.19,5.24,2.33,5.28,6.17,0,4-1.84,4.67-5.25,4.45-4-.25-8,.1-12-.17s-5.15,1.47-5.1,5.26c.16,11.92-.08,23.86.13,35.78.07,4.3-1.36,5.78-5.75,5.78s-5.31-1.94-5.27-5.72c.13-12.26,0-24.53.15-36.79,0-3.33-1-4.32-4.25-4.3-4.35,0-8.34.2-12.46.16-3.89.3-5.75-.53-5.78-5s1.66-5.78,5.88-5.65C1025,166.53,1032.28,166.37,1039.6,166.37Z"/><path class="cls-1" d="M106.54,235.67H0c1.24-2.53,2.2-5.29,3.75-7.57,15.05-22,35.13-30.84,60-27.13,1.75.26,4.78-2.05,6.64-2.66-.76-1.95-2.24-3.29-3.44-4.87-7.54-10-16.18-19.19-22.72-29.9-16.81-27.49-23.67-58.06-21.6-91.15A159.88,159.88,0,0,1,43.15,3.47C44.77.57,46.32.09,48.56,2.6s4.93,4.9,7,7.69c3.55,4.79,7.89,6.22,13.49,6.19,40.14-.22,80.29-.5,120.42.14C200,16.79,208.66,15,214.91,5.17a8.11,8.11,0,0,1,1.44-1.49c5.16-4.78,12.27-4.92,16.75-.34,5,5.12,5.42,13,.71,19.06a64.44,64.44,0,0,1-8.09,8.79c-2.76,2.43-3.63,5.21-3.62,8.92,0,49-.08,98,.14,147,0,3.33,1.93,7.09,3.9,9.86,3,4.21,6.81,7.72,11.05,12.38-45.52,29.68-91.44,31.92-138.92,8.46l-.35,1.39Zm99.15-61V53.2c-1.9,1.74-3.21,2.76-4.32,4-15.93,17.59-31.78,35.28-47.8,52.78-2.76,3-2.19,4.82.27,7.48q22.08,23.82,43.95,47.87C200.21,168,202.45,170.79,205.69,174.63ZM187.46,34.54H78.56A21.5,21.5,0,0,0,80.12,37c16.65,18.17,33.35,36.28,49.93,54.51,2.46,2.7,4,1.92,6.13-.38q24.39-26.74,48.88-53.36C185.74,37,186.29,36.1,187.46,34.54Z"/></g></g></svg>