<?xml version="1.0" encoding="utf-8"?>
<!-- Generator: Adobe Illustrator 23.0.2, SVG Export Plug-In . SVG Version: 6.00 Build 0)  -->
<svg version="1.1" id="Layer_1" xmlns="http://www.w3.org/2000/svg" xmlns:xlink="http://www.w3.org/1999/xlink" x="0px" y="0px"
	 viewBox="0 0 150 58" style="enable-background:new 0 0 150 58;" xml:space="preserve">
<style type="text/css">
	.st0{fill:#FFFFFF;}
</style>
<path id="openbeyond.svg_5_" class="st0" d="M145.8,13.9V0h4.2v13.9H145.8z M144.57,31.75L127.23,7.09v19.38h-4.2V0h4.37
	l22.52,31.75L144.57,31.75L144.57,31.75z M103.87,45.03v12.7h-1.74v-15.3h1.83l9.26,12.7v-12.7h1.74v15.29h-1.83L103.87,45.03z
	 M86.27,27.77h20.82v3.98H86.26L86.27,27.77L86.27,27.77z M90.46,13.9h10.32v3.95H86.26V0h20.82v4.02H90.46V13.9z M82.58,58
	c-4.42,0-7.56-3.28-7.56-7.92s3.15-7.92,7.56-7.92c4.44,0,7.56,3.28,7.56,7.92S87.02,58,82.58,58z M82.58,43.69
	c-3.31,0-5.64,2.64-5.64,6.39s2.33,6.4,5.64,6.4s5.66-2.64,5.66-6.4S85.88,43.69,82.58,43.69z M60.25,19.7h-8.96v12.05h-4.2V15.68
	h13.16c3.22,0,5.83-2.61,5.83-5.83c0-3.22-2.61-5.83-5.83-5.83h-7.31V0h7.31c5.44,0.08,9.79,4.55,9.71,9.99
	C69.88,15.32,65.58,19.62,60.25,19.7z M32.6,42.44h9.71v1.46h-7.85v5.3h7.13v1.41h-7.13v5.67h8.22v1.46H32.6V42.44z M15.77,31.75
	c-1.79,0-3.57-0.31-5.26-0.91v-4.23c1.63,0.82,3.43,1.24,5.26,1.25c6.62,0.04,12.01-5.28,12.06-11.9
	c0.04-6.62-5.28-12.01-11.9-12.06S3.91,9.18,3.87,15.8c0,0.03,0,0.05,0,0.08H0C0.06,7.17,7.17,0.15,15.87,0.21
	s15.72,7.17,15.66,15.87C31.48,24.75,24.43,31.75,15.77,31.75z M19.9,46.4c0.02,1.52-0.91,2.88-2.33,3.41
	c1.72,0.44,2.91,2,2.88,3.78c0,2.48-1.95,4.14-4.69,4.14h-6.5V42.44h6.14C18.05,42.44,19.9,44.07,19.9,46.4z M11.07,56.32h4.44
	c1.6,0.13,3-1.05,3.13-2.65c0.13-1.6-1.05-3-2.65-3.13c-0.16-0.01-0.32-0.01-0.48,0h-4.44L11.07,56.32L11.07,56.32z M11.07,43.85
	v5.42h4.1c1.5,0.12,2.8-1,2.92-2.5c0.12-1.5-1-2.8-2.5-2.92c-0.14-0.01-0.28-0.01-0.42,0H11.07z M59.28,49.51l4.44-7.08h2.09
	l-5.59,8.76v6.53h-1.88V51.2l-5.57-8.76h2.06L59.28,49.51z M140.98,50.08c0.18,4.04-2.95,7.47-6.99,7.65c-0.25,0.01-0.5,0.01-0.75,0
	h-5.14V42.44h5.14C137.85,42.44,140.97,45.53,140.98,50.08L140.98,50.08z M129.95,43.92v12.33h3.1c3.22,0.11,5.92-2.41,6.03-5.63
	c0.01-0.18,0-0.36-0.01-0.53c0.19-3.22-2.27-5.98-5.49-6.16c-0.18-0.01-0.36-0.01-0.53-0.01L129.95,43.92L129.95,43.92z"/>
</svg>
